<svg width="24" height="24" viewBox="0 0 24 24" fill="none" xmlns="http://www.w3.org/2000/svg">
<g clip-path="url(#clip0_12_470)">
<path d="M5.60853 4.86629L15.1762 2.25473L14.6695 1.23058C14.338 0.564888 13.5295 0.289987 12.8638 0.621486L4.29871 4.86629H5.60853Z" fill="#FFDE15"/>
<path d="M18.1462 2.33018C18.0276 2.33018 17.909 2.34636 17.7904 2.3787L15.5427 2.99318L8.67822 4.86628H16.4698H19.8656L19.4452 3.32468C19.2835 2.72367 18.7391 2.33018 18.1462 2.33018Z" fill="#FFDE15"/>
<path d="M21.2698 5.80959H20.9626H20.5449H20.1271H16.9388H5.22313H3.68692H2.39326H2.1534H1.35025C0.924424 5.80959 0.544413 6.00633 0.296463 6.31627C0.183268 6.45911 0.0970242 6.62351 0.0485121 6.80408C0.0188658 6.91728 0 7.03586 0 7.15714V7.31885V8.85507V22.1716C0 22.9155 0.603706 23.5192 1.34756 23.5192H21.2672C22.011 23.5192 22.6147 22.9155 22.6147 22.1716V18.4119H14.6183C13.3543 18.4119 12.3275 17.3851 12.3275 16.1211V14.8867V14.469V14.0512V13.1241C12.3275 12.5043 12.5754 11.941 12.977 11.5286C13.3327 11.1621 13.8098 10.9141 14.3434 10.8521C14.4323 10.8414 14.524 10.836 14.6156 10.836H21.4935H21.9113H22.329H22.6147V7.15714C22.6174 6.41329 22.0137 5.80959 21.2698 5.80959Z" fill="#FFDE15"/>
<path d="M23.5607 12.1242C23.4259 12.0003 23.2669 11.9059 23.0891 11.8439C22.9516 11.7982 22.8061 11.7712 22.6524 11.7712H22.6174H22.5905H22.1727H20.6661H14.6183C13.8744 11.7712 13.2708 12.3749 13.2708 13.1188V13.7898V14.2076V14.6253V16.1184C13.2708 16.8622 13.8744 17.466 14.6183 17.466H22.6174H22.6524C22.8061 17.466 22.9516 17.439 23.0891 17.3932C23.2669 17.3339 23.4259 17.2369 23.5607 17.1129C23.8302 16.8676 24 16.5119 24 16.1184V13.1188C24 12.7252 23.8302 12.3695 23.5607 12.1242ZM17.432 14.8867C17.432 15.2587 17.1302 15.5605 16.7582 15.5605H16.3108C15.9389 15.5605 15.6371 15.2587 15.6371 14.8867V14.4393C15.6371 14.2237 15.7368 14.0324 15.8958 13.9111C16.0117 13.8221 16.1546 13.7656 16.3108 13.7656H16.424H16.7582C17.1302 13.7656 17.432 14.0674 17.432 14.4393V14.8867Z" fill="black"/>
</g>
<defs>
<clipPath id="clip0_12_470">
<rect width="24" height="24" fill="white"/>
</clipPath>
</defs>
</svg>
